#N canvas 1 67 1364 674 10;
#X declare -path ./Yellotron;
#N canvas 1 67 1364 674 beatslicer 0;
#N canvas 1 67 450 250 (subpatch) 0;
#X array \$0-sample-L 944016 float 2;
#X coords 0 1 944016 -1 448 100 1 0 0;
#X restore 178 124 graph;
#N canvas 1 67 450 250 (subpatch) 0;
#X array \$0-sample-R 944016 float 2;
#X coords 0 1 944016 -1 448 100 1 0 0;
#X restore 178 224 graph;
#X obj 179 334 hradio 14 1 0 32 empty empty empty 0 -8 0 10 -262144
-1 -1 16;
#N canvas 605 396 441 345 read-file 0;
#X obj 35 51 openpanel;
#X obj 35 241 soundfiler;
#X text 116 241 Read sample into array;
#X obj 68 125 symbol \$0-sample-L;
#X obj 35 179 pack s s s;
#X obj 102 149 symbol \$0-sample-R;
#X obj 35 86 t a b b;
#X msg 35 210 read -resize \$1 \$2 \$3;
#X obj 35 265 outlet sample-size;
#X obj 35 25 inlet open;
#X connect 0 0 6 0;
#X connect 1 0 8 0;
#X connect 3 0 4 1;
#X connect 4 0 7 0;
#X connect 5 0 4 2;
#X connect 6 0 4 0;
#X connect 6 1 3 0;
#X connect 6 2 5 0;
#X connect 7 0 1 0;
#X connect 9 0 0 0;
#X restore 672 249 pd read-file;
#X obj 115 126 bng 30 250 50 0 empty empty Open_file 35 7 0 10 -262144
-1 -1;
#X floatatom 672 295 10 0 0 0 - - -;
#X obj 761 266 f 0;
#X obj 793 266 + 1;
#X floatatom 761 314 5 0 0 0 - - -;
#X obj 114 170 tgl 30 0 empty empty Play 35 7 0 10 -262144 -1 -1 0
1;
#X obj 761 242 metro 200;
#X obj 825 236 expr ($f1 / 32) / 44.1;
#N canvas 339 338 487 403 send-message-to-step 0;
#X obj 88 329 send;
#X obj 113 232 pack f \$0;
#X msg 113 261 symbol \$2-step-\$1;
#X obj 31 264 pack s f;
#X obj 84 233 f;
#X obj 30 165 t b b f;
#X obj 31 234 symbol;
#X obj 31 288 list trim;
#X obj 30 39 r \$0-step-to-message;
#X obj 339 39 r \$0-message-value;
#X obj 190 39 r \$0-message-type;
#X connect 1 0 2 0;
#X connect 2 0 0 1;
#X connect 3 0 7 0;
#X connect 4 0 3 1;
#X connect 5 0 6 0;
#X connect 5 1 4 0;
#X connect 5 2 1 0;
#X connect 6 0 3 0;
#X connect 7 0 0 0;
#X connect 8 0 5 0;
#X connect 9 0 4 1;
#X connect 10 0 6 1;
#X restore 672 410 pd send-message-to-step;
#X obj 694 69 t f b b;
#X msg 717 98 symbol step;
#N canvas 158 371 1009 370 controls 0;
#X obj 100 100 step \$0 0;
#X obj 114 100 step \$0 1;
#X obj 128 100 step \$0 2;
#X obj 142 100 step \$0 3;
#X obj 156 100 step \$0 4;
#X obj 170 100 step \$0 5;
#X obj 184 100 step \$0 6;
#X obj 198 100 step \$0 7;
#X obj 212 100 step \$0 8;
#X obj 226 100 step \$0 9;
#X obj 240 100 step \$0 10;
#X obj 254 100 step \$0 11;
#X obj 268 100 step \$0 12;
#X obj 282 100 step \$0 13;
#X obj 296 100 step \$0 14;
#X obj 310 100 step \$0 15;
#X obj 324 100 step \$0 16;
#X obj 338 100 step \$0 17;
#X obj 352 100 step \$0 18;
#X obj 366 100 step \$0 19;
#X obj 380 100 step \$0 20;
#X obj 394 100 step \$0 21;
#X obj 408 100 step \$0 22;
#X obj 422 100 step \$0 23;
#X obj 436 100 step \$0 24;
#X obj 450 100 step \$0 25;
#X obj 464 100 step \$0 26;
#X obj 478 100 step \$0 27;
#X obj 492 100 step \$0 28;
#X obj 506 100 step \$0 29;
#X obj 520 100 step \$0 30;
#X obj 534 100 step \$0 31;
#X coords 0 -1 1 1 448 200 2 100 100;
#X restore 179 358 pd controls;
#X obj 761 290 mod 32;
#N canvas 172 67 538 674 sample-player 0;
#X obj 85 489 tabread4~ \$0-sample-L;
#X obj 153 508 tabread4~ \$0-sample-R;
#X obj 84 437 line~;
#X obj 84 461 *~ 1;
#X obj 151 240 f;
#X obj 84 30 bng 15 250 50 0 empty \$0-trigger Trigger 17 7 0 10 -262144
-1 -1;
#X msg 84 358 \$1 \, \$2 \$3;
#X obj 84 323 pack f f f;
#X obj 84 50 t b b;
#X obj 84 83 t b b;
#X obj 84 263 f;
#X obj 117 263 f;
#X obj 102 133 t f f;
#X obj 102 160 expr $f1;
#X obj 135 191 expr (float(1) / 32) + $f1;
#X obj 162 69 r \$0-start-pos;
#X obj 151 269 expr ($f1 / 32) / 44.1 * $f2;
#X obj 344 240 r \$0-pitch;
#X msg 174 358 \$2 \, \$1 \$3;
#X obj 84 397 spigot 1;
#X obj 154 397 spigot 0;
#X obj 282 335 r \$0-reverse;
#X obj 282 359 == 0;
#X obj 171 530 r \$0-on-off;
#X obj 154 603 *~;
#X obj 84 604 *~;
#X obj 171 576 line~;
#X obj 167 427 r \$0-file-size;
#X obj 178 216 r \$0-file-size;
#X obj 84 628 outlet~;
#X obj 154 628 outlet~;
#X msg 171 552 \$1;
#X obj 162 93 expr int($f1 * 32) / 32;
#X connect 0 0 25 0;
#X connect 1 0 24 0;
#X connect 2 0 3 0;
#X connect 3 0 0 0;
#X connect 3 0 1 0;
#X connect 4 0 16 0;
#X connect 5 0 8 0;
#X connect 6 0 19 0;
#X connect 7 0 6 0;
#X connect 7 0 18 0;
#X connect 8 0 9 0;
#X connect 8 1 4 0;
#X connect 9 0 10 0;
#X connect 9 1 11 0;
#X connect 10 0 7 0;
#X connect 11 0 7 1;
#X connect 12 0 13 0;
#X connect 12 1 14 0;
#X connect 13 0 10 1;
#X connect 14 0 11 1;
#X connect 15 0 32 0;
#X connect 16 0 7 2;
#X connect 17 0 16 1;
#X connect 18 0 20 0;
#X connect 19 0 2 0;
#X connect 20 0 2 0;
#X connect 21 0 22 0;
#X connect 21 0 20 1;
#X connect 22 0 19 1;
#X connect 23 0 31 0;
#X connect 24 0 30 0;
#X connect 25 0 29 0;
#X connect 26 0 24 1;
#X connect 26 0 25 1;
#X connect 27 0 3 1;
#X connect 28 0 4 1;
#X connect 31 0 26 0;
#X connect 32 0 12 0;
#X restore 745 463 pd sample-player;
#X obj 704 345 s \$0-file-size;
#X obj 825 208 r \$0-file-size;
#X msg 740 128 0;
#N canvas 416 367 460 592 control-all 0;
#X obj 137 443 until;
#X msg 137 386 32;
#X obj 137 497 f 0;
#X obj 172 497 + 1;
#X msg 155 468 0;
#X obj 137 410 t f b;
#X msg 223 351 symbol pitch;
#X obj 100 36 vsl 14 80 0.1 1 0 0 empty empty empty -56 30 0 10 -262144
-1 -1 0 1;
#X obj 197 238 t b b f;
#X obj 100 119 tgl 14 0 empty empty empty -68 7 0 10 -262144 -1 -1
0 1;
#X obj 263 237 t b b f;
#X msg 240 390 symbol on-off;
#X msg 230 370 symbol reverse;
#X msg 213 331 symbol start-pos;
#X obj 216 438 t a;
#X obj 295 290 t f;
#X obj 100 20 tgl 14 0 empty empty empty -62 7 0 10 -262144 -1 -1 0
1;
#X obj 323 237 t b b f;
#X obj 137 292 t b;
#X obj 100 135 vsl 14 80 0 1 0 0 empty empty empty -80 30 0 10 -262144
-1 -1 0 1;
#X obj 137 238 t b b f;
#X obj 137 551 s \$0-step-to-message;
#X obj 216 521 s \$0-message-type;
#X obj 295 491 s \$0-message-value;
#X connect 0 0 2 0;
#X connect 1 0 5 0;
#X connect 2 0 3 0;
#X connect 2 0 21 0;
#X connect 3 0 2 1;
#X connect 4 0 2 1;
#X connect 5 0 0 0;
#X connect 5 1 4 0;
#X connect 6 0 14 0;
#X connect 7 0 8 0;
#X connect 8 0 18 0;
#X connect 8 1 6 0;
#X connect 8 2 15 0;
#X connect 9 0 10 0;
#X connect 10 0 18 0;
#X connect 10 1 12 0;
#X connect 10 2 15 0;
#X connect 11 0 14 0;
#X connect 12 0 14 0;
#X connect 13 0 14 0;
#X connect 14 0 22 0;
#X connect 15 0 23 0;
#X connect 16 0 17 0;
#X connect 17 0 18 0;
#X connect 17 1 11 0;
#X connect 17 2 15 0;
#X connect 18 0 1 0;
#X connect 19 0 20 0;
#X connect 20 0 18 0;
#X connect 20 1 13 0;
#X connect 20 2 15 0;
#X coords 0 -1 1 1 14 200 2 100 20;
#X restore 155 358 pd control-all;
#X obj 694 211 s \$0-step-to-message;
#X obj 717 181 s \$0-message-type;
#X obj 740 155 s \$0-message-value;
#X obj 131 358 bng 14 250 50 0 \$0-randomize-on-off empty empty 17
7 0 10 -262144 -1 -1;
#X obj 131 382 bng 14 250 50 0 \$0-randomize-pitch empty empty 17 7
0 10 -262144 -1 -1;
#X obj 131 457 bng 14 250 50 0 \$0-randomize-reverse empty empty 17
7 0 10 -262144 -1 -1;
#X obj 131 481 bng 14 250 50 0 \$0-randomize-start-pos empty empty
17 7 0 10 -262144 -1 -1;
#N canvas 356 93 827 648 randomize 0;
#X obj 66 23 r \$0-randomize-start-pos;
#X obj 66 345 until;
#X msg 66 288 32;
#X obj 66 399 f 0;
#X obj 101 399 + 1;
#X msg 84 370 0;
#X obj 66 312 t f b;
#X msg 464 234 symbol pitch;
#X msg 624 234 symbol on-off;
#X msg 294 234 symbol reverse;
#X msg 112 234 symbol start-pos;
#X obj 66 542 s \$0-step-to-message;
#X obj 225 489 s \$0-message-type;
#X obj 155 516 s \$0-message-value;
#X msg 89 171 80;
#X obj 66 423 t f b;
#X obj 155 463 random;
#X obj 155 487 /;
#X obj 89 209 t f;
#X obj 248 23 r \$0-randomize-reverse;
#X obj 66 47 t b b b;
#X obj 225 461 t a;
#X obj 66 111 t b;
#X obj 248 47 t b b b;
#X obj 418 47 t b b b;
#X obj 418 23 r \$0-randomize-pitch;
#X obj 578 47 t b b b;
#X obj 578 23 r \$0-randomize-on-off;
#X obj 138 430 bng 15 250 50 0 empty empty empty 17 7 0 10 -262144
-1 -1;
#X obj 190 336 t b b;
#X msg 222 359 2;
#X msg 190 360 1;
#X obj 271 169 t b;
#X connect 0 0 20 0;
#X connect 1 0 3 0;
#X connect 2 0 6 0;
#X connect 3 0 4 0;
#X connect 3 0 15 0;
#X connect 4 0 3 1;
#X connect 5 0 3 1;
#X connect 6 0 1 0;
#X connect 6 1 5 0;
#X connect 7 0 21 0;
#X connect 8 0 21 0;
#X connect 9 0 21 0;
#X connect 10 0 21 0;
#X connect 14 0 18 0;
#X connect 15 0 11 0;
#X connect 15 1 16 0;
#X connect 16 0 17 0;
#X connect 17 0 13 0;
#X connect 18 0 17 1;
#X connect 18 0 16 1;
#X connect 19 0 23 0;
#X connect 20 0 22 0;
#X connect 20 1 14 0;
#X connect 20 2 10 0;
#X connect 21 0 12 0;
#X connect 22 0 2 0;
#X connect 23 0 22 0;
#X connect 23 1 32 0;
#X connect 23 2 9 0;
#X connect 24 0 22 0;
#X connect 24 1 14 0;
#X connect 24 2 7 0;
#X connect 25 0 24 0;
#X connect 26 0 22 0;
#X connect 26 1 32 0;
#X connect 26 2 8 0;
#X connect 27 0 26 0;
#X connect 28 0 16 0;
#X connect 29 0 31 0;
#X connect 29 1 30 0;
#X connect 30 0 16 1;
#X connect 31 0 17 1;
#X connect 32 0 29 0;
#X restore 672 429 pd randomize;
#N canvas 266 144 937 597 init 0;
#X obj 66 345 until;
#X msg 66 288 32;
#X obj 66 399 f 0;
#X obj 101 399 + 1;
#X msg 84 370 0;
#X obj 66 312 t f b;
#X msg 464 234 symbol pitch;
#X msg 624 234 symbol on-off;
#X msg 294 234 symbol reverse;
#X msg 112 234 symbol start-pos;
#X obj 66 542 s \$0-step-to-message;
#X obj 225 489 s \$0-message-type;
#X obj 155 516 s \$0-message-value;
#X obj 89 209 t f;
#X obj 66 47 t b b b;
#X obj 225 391 t a;
#X obj 66 111 t b;
#X obj 248 47 t b b b;
#X obj 418 47 t b b b;
#X obj 578 47 t b b b;
#X obj 66 23 r \$0-init-start-pos;
#X obj 248 23 r \$0-init-reverse;
#X obj 418 23 r \$0-init-pitch;
#X obj 578 23 r \$0-init-on-off;
#X msg 271 138 0;
#X msg 441 138 1;
#X msg 601 138 1;
#X obj 203 420 sel start-pos;
#X obj 155 479 spigot;
#X msg 203 444 1;
#X msg 291 446 0;
#X obj 66 423 t f f;
#X text 306 421 <-- Special case for start-pos;
#X obj 98 448 expr $f1 / 32;
#X connect 0 0 2 0;
#X connect 1 0 5 0;
#X connect 2 0 3 0;
#X connect 2 0 31 0;
#X connect 3 0 2 1;
#X connect 4 0 2 1;
#X connect 5 0 0 0;
#X connect 5 1 4 0;
#X connect 6 0 15 0;
#X connect 7 0 15 0;
#X connect 8 0 15 0;
#X connect 9 0 15 0;
#X connect 13 0 12 0;
#X connect 14 0 16 0;
#X connect 14 2 9 0;
#X connect 15 0 11 0;
#X connect 15 0 27 0;
#X connect 16 0 1 0;
#X connect 17 0 16 0;
#X connect 17 1 24 0;
#X connect 17 2 8 0;
#X connect 18 0 16 0;
#X connect 18 1 25 0;
#X connect 18 2 6 0;
#X connect 19 0 16 0;
#X connect 19 1 26 0;
#X connect 19 2 7 0;
#X connect 20 0 14 0;
#X connect 21 0 17 0;
#X connect 22 0 18 0;
#X connect 23 0 19 0;
#X connect 24 0 13 0;
#X connect 25 0 13 0;
#X connect 26 0 13 0;
#X connect 27 0 29 0;
#X connect 27 1 30 0;
#X connect 28 0 12 0;
#X connect 29 0 28 1;
#X connect 30 0 28 1;
#X connect 31 0 10 0;
#X connect 31 1 33 0;
#X connect 33 0 28 0;
#X restore 672 448 pd init;
#X obj 111 358 bng 14 250 50 0 \$0-init-on-off empty empty 17 7 0 10
-262144 -1 -1;
#X obj 111 382 bng 14 250 50 0 \$0-init-pitch empty empty 17 7 0 10
-262144 -1 -1;
#X obj 111 457 bng 14 250 50 0 \$0-init-reverse empty empty 17 7 0
10 -262144 -1 -1;
#X obj 111 481 bng 14 250 50 0 \$0-init-start-pos empty empty 17 7
0 10 -262144 -1 -1;
#X obj 662 19 t f f;
#X obj 662 43 s \$0-trigger;
#X obj 672 366 s \$0-init;
#X obj 672 323 t b f;
#X obj 672 273 f;
#X obj 184 68 loadbang;
#X obj 745 546 outlet~;
#X obj 108 69 inlet;
#X obj 146 69 inlet;
#X obj 892 118 cnv 15 100 60 empty empty empty 20 12 0 14 -233017 -66577
0;
#X obj 907 545 outlet;
#X obj 746 513 +~, f 16;
#X obj 239 68 inlet;
#X obj 854 544 outlet;
#X connect 2 0 35 0;
#X connect 3 0 39 0;
#X connect 4 0 3 0;
#X connect 5 0 38 0;
#X connect 6 0 7 0;
#X connect 6 0 16 0;
#X connect 7 0 6 1;
#X connect 8 0 2 0;
#X connect 9 0 10 0;
#X connect 10 0 6 0;
#X connect 10 0 45 0;
#X connect 11 0 10 1;
#X connect 11 0 48 0;
#X connect 13 0 22 0;
#X connect 13 1 14 0;
#X connect 13 2 20 0;
#X connect 14 0 23 0;
#X connect 16 0 8 0;
#X connect 17 0 46 0;
#X connect 17 1 46 1;
#X connect 19 0 11 0;
#X connect 20 0 24 0;
#X connect 35 0 36 0;
#X connect 35 1 13 0;
#X connect 38 0 37 0;
#X connect 38 1 18 0;
#X connect 39 0 5 0;
#X connect 40 0 31 0;
#X connect 40 0 32 0;
#X connect 40 0 33 0;
#X connect 40 0 34 0;
#X connect 42 0 4 0;
#X connect 43 0 9 0;
#X connect 46 0 41 0;
#X connect 47 0 2 0;
#X coords 0 -1 1 1 540 470 1 100 100;
#X restore 1 5 pd beatslicer;
#X obj 638 505 *~ 0.5;
#X obj 725 600 dac~, f 5;
#X obj 545 358 bng 15 250 50 0 empty empty empty 17 7 0 10 -262144
-1 -1;
#N canvas 255 82 1068 584 yellotron 0;
#N canvas 417 264 450 403 armoire 0;
#X obj 20 36 table tab_43;
#X obj 20 55 table tab_44;
#X obj 20 74 table tab_45;
#X obj 20 93 table tab_46;
#X obj 20 112 table tab_47;
#X obj 20 131 table tab_48;
#X obj 20 150 table tab_49;
#X obj 20 169 table tab_50;
#X obj 20 188 table tab_51;
#X obj 20 207 table tab_52;
#X obj 20 226 table tab_53;
#X obj 20 245 table tab_54;
#X obj 20 264 table tab_55;
#X obj 105 36 table tab_56;
#X obj 105 55 table tab_57;
#X obj 105 74 table tab_58;
#X obj 105 93 table tab_59;
#X obj 105 112 table tab_60;
#X obj 105 131 table tab_61;
#X obj 105 150 table tab_62;
#X obj 105 169 table tab_63;
#X obj 105 188 table tab_64;
#X obj 105 207 table tab_65;
#X obj 105 226 table tab_66;
#X obj 105 245 table tab_67;
#X obj 105 264 table tab_68;
#X obj 190 36 table tab_69;
#X obj 190 55 table tab_70;
#X obj 190 74 table tab_71;
#X obj 190 93 table tab_72;
#X obj 190 112 table tab_73;
#X obj 190 131 table tab_74;
#X obj 190 150 table tab_75;
#X obj 190 169 table tab_76;
#X obj 190 188 table tab_77;
#X restore 1057 493 pd armoire;
#N canvas 65 200 763 567 armement 0;
#X obj 198 507 soundfiler;
#X obj 244 339 until;
#X obj 245 413 textfile;
#X msg 311 389 rewind;
#X msg 244 362 bang;
#X obj 244 277 pipe 1;
#X msg 280 360 read notemap.txt cr;
#X obj 198 448 unpack s f;
#X obj 198 468 pack s s f;
#X obj 181 246 symbol;
#X obj 244 256 t s b;
#X obj 244 295 t b b;
#X msg 198 488 read -resize ./\$2/\$1 tab_\$3;
#X msg 244 319 35;
#X obj 181 18 inlet;
#X symbolatom 106 133 10 0 0 0 - - -;
#X obj 214 49 sel 0 1 2 3 4 5 6 7 8 9;
#X msg 271 200 Cello;
#X msg 207 86 MKIIFlute;
#X msg 295 243 CombinedChoir;
#X msg 248 155 MKIIViolin;
#X msg 283 222 StringSection;
#X msg 330 124 Woodwind;
#X msg 345 151 GC3Brass;
#X msg 220 109 M300A;
#X msg 232 133 M300B;
#X msg 260 178 MKIIBrass;
#X text 430 44 Here we load the choosen instrument into;
#X text 431 57 the bank of tables.;
#X text 431 73 The sound samples for each note have to;
#X text 430 87 be in folders located in the same folder;
#X text 431 102 as yellotron.pd.;
#X text 431 117 The samples (named C \, C# \, B...) are mapped;
#X text 431 130 to midi notes (60 \, 61 \, 62...) as per the information
;
#X text 431 144 contained in notemap.txt .;
#X text 104 115 Instrument;
#X connect 1 0 4 0;
#X connect 2 0 7 0;
#X connect 3 0 2 0;
#X connect 4 0 2 0;
#X connect 5 0 11 0;
#X connect 6 0 2 0;
#X connect 7 0 8 0;
#X connect 7 1 8 2;
#X connect 8 0 12 0;
#X connect 9 0 8 1;
#X connect 9 0 10 0;
#X connect 9 0 15 0;
#X connect 10 0 5 0;
#X connect 10 1 6 0;
#X connect 11 0 13 0;
#X connect 11 1 3 0;
#X connect 12 0 0 0;
#X connect 13 0 1 0;
#X connect 14 0 16 0;
#X connect 16 0 18 0;
#X connect 16 1 24 0;
#X connect 16 2 25 0;
#X connect 16 3 20 0;
#X connect 16 4 26 0;
#X connect 16 5 17 0;
#X connect 16 6 21 0;
#X connect 16 7 19 0;
#X connect 16 8 22 0;
#X connect 16 9 23 0;
#X connect 17 0 9 0;
#X connect 18 0 9 0;
#X connect 19 0 9 0;
#X connect 20 0 9 0;
#X connect 21 0 9 0;
#X connect 22 0 9 0;
#X connect 23 0 9 0;
#X connect 24 0 9 0;
#X connect 25 0 9 0;
#X connect 26 0 9 0;
#X coords 0 -1 1 1 85 60 2 100 100;
#X restore 110 234 pd armement;
#X obj 568 416 keyup;
#X obj 472 419 key;
#N canvas 319 350 450 345 convert 0;
#X obj 147 81 inlet;
#X obj 33 183 sel 113 122 115 101 100 102 116 103;
#X msg 18 229 0;
#X msg 32 262 1;
#X msg 55 232 2;
#X msg 72 264 3;
#X msg 96 232 4;
#X msg 117 261 5;
#X msg 140 231 6;
#X msg 163 259 7;
#X obj 176 134 sel 121 104 117 106 107 111 108 112 109;
#X msg 219 235 8;
#X msg 236 260 9;
#X msg 262 235 10;
#X msg 279 260 11;
#X msg 304 235 12;
#X msg 321 260 13;
#X msg 348 234 14;
#X msg 365 259 15;
#X msg 390 234 16;
#X obj 160 309 outlet;
#X text 27 15 This was desgined to play on an AZERTY keyboard \, with
the letter "q" mapped to the note C.;
#X text 27 42 For another keyboard layout you'll have to change the
numbers in the [sel] objects.;
#X connect 0 0 1 0;
#X connect 0 0 10 0;
#X connect 1 0 2 0;
#X connect 1 1 3 0;
#X connect 1 2 4 0;
#X connect 1 3 5 0;
#X connect 1 4 6 0;
#X connect 1 5 7 0;
#X connect 1 6 8 0;
#X connect 1 7 9 0;
#X connect 2 0 20 0;
#X connect 3 0 20 0;
#X connect 4 0 20 0;
#X connect 5 0 20 0;
#X connect 6 0 20 0;
#X connect 7 0 20 0;
#X connect 8 0 20 0;
#X connect 9 0 20 0;
#X connect 10 0 11 0;
#X connect 10 1 12 0;
#X connect 10 2 13 0;
#X connect 10 3 14 0;
#X connect 10 4 15 0;
#X connect 10 5 16 0;
#X connect 10 6 17 0;
#X connect 10 7 18 0;
#X connect 10 8 19 0;
#X connect 11 0 20 0;
#X connect 12 0 20 0;
#X connect 13 0 20 0;
#X connect 14 0 20 0;
#X connect 15 0 20 0;
#X connect 16 0 20 0;
#X connect 17 0 20 0;
#X connect 18 0 20 0;
#X connect 19 0 20 0;
#X restore 466 443 pd convert keys;
#N canvas 320 390 450 300 convert 0;
#X obj 147 21 inlet;
#X obj 33 123 sel 113 122 115 101 100 102 116 103;
#X msg 18 169 0;
#X msg 32 202 1;
#X msg 55 172 2;
#X msg 72 204 3;
#X msg 96 172 4;
#X msg 117 201 5;
#X msg 140 171 6;
#X msg 163 199 7;
#X obj 176 74 sel 121 104 117 106 107 111 108 112 109;
#X msg 219 175 8;
#X msg 236 200 9;
#X msg 262 175 10;
#X msg 279 200 11;
#X msg 304 175 12;
#X msg 321 200 13;
#X msg 348 174 14;
#X msg 365 199 15;
#X msg 390 174 16;
#X obj 160 249 outlet;
#X connect 0 0 1 0;
#X connect 0 0 10 0;
#X connect 1 0 2 0;
#X connect 1 1 3 0;
#X connect 1 2 4 0;
#X connect 1 3 5 0;
#X connect 1 4 6 0;
#X connect 1 5 7 0;
#X connect 1 6 8 0;
#X connect 1 7 9 0;
#X connect 2 0 20 0;
#X connect 3 0 20 0;
#X connect 4 0 20 0;
#X connect 5 0 20 0;
#X connect 6 0 20 0;
#X connect 7 0 20 0;
#X connect 8 0 20 0;
#X connect 9 0 20 0;
#X connect 10 0 11 0;
#X connect 10 1 12 0;
#X connect 10 2 13 0;
#X connect 10 3 14 0;
#X connect 10 4 15 0;
#X connect 10 5 16 0;
#X connect 10 6 17 0;
#X connect 10 7 18 0;
#X connect 10 8 19 0;
#X connect 11 0 20 0;
#X connect 12 0 20 0;
#X connect 13 0 20 0;
#X connect 14 0 20 0;
#X connect 15 0 20 0;
#X connect 16 0 20 0;
#X connect 17 0 20 0;
#X connect 18 0 20 0;
#X connect 19 0 20 0;
#X restore 562 443 pd convert keys;
#X obj 276 589 pack 0 0 0;
#X obj 466 507 t f b;
#X msg 493 528 50;
#X obj 514 507 t f b;
#X msg 541 528 0;
#X obj 274 611 route 1 2 3 4 5 6;
#X obj 868 447 s release;
#X obj 114 162 hsl 128 15 10 1000 0 0 empty empty empty -2 -8 0 10
-262144 -1 -1 2437 1;
#X floatatom 916 428 5 0 0 0 - - -;
#X obj 868 472 hradio 15 1 0 2 empty empty empty 0 -8 0 10 -262144
-1 -1 0;
#X obj 868 492 * 12;
#X obj 466 485 + 48;
#X obj 562 483 + 48;
#X obj 868 514 + 48;
#X obj 830 180 loadbang;
#X obj 868 534 s octave;
#X obj 583 462 r octave;
#X obj 271 143 vradio 15 1 0 10 empty empty empty 0 -8 0 10 -262144
-1 -1 2;
#X text 292 143 MkII Flute;
#X text 292 157 M300A;
#X text 292 172 M300B;
#X text 292 187 MkII Violin;
#X text 292 203 MkII Brass;
#X text 292 218 Cello;
#X text 292 232 String Section;
#X text 292 248 Combined Choir;
#X text 292 263 Woodwind;
#X text 292 278 GC3 Brass;
#X obj 114 200 hsl 128 15 0 0.125 0 0 empty empty empty -2 -8 0 10
-262144 -1 -1 6350 1;
#X obj 867 632 s pitch;
#X obj 867 607 - 0.0625;
#X obj 331 498 notein;
#X obj 466 589 pack 0 0 0;
#X obj 464 611 route 1 2 3 4 5 6;
#X obj 466 564 poly 6;
#X obj 278 499 poly 6;
#X obj 556 699 yelloscillator;
#X obj 811 531 bendin;
#X obj 811 551 / 16383;
#X obj 811 570 / 8;
#X obj 306 757 *~ 0.3;
#X text 1039 445 This is where all the notes;
#X text 1040 460 for the instrument are stored;
#X text 1040 474 in tables.;
#X text 656 698 The audio happens here (inidivual notes are played
;
#X text 655 713 and then summed together before being sent to the audio
output (dac).;
#X obj 868 382 r set-release;
#X obj 867 566 r set-pitch;
#X floatatom 807 658 5 0 0 0 - - -;
#X obj 266 699 yelloscillator;
#X obj 365 699 yelloscillator;
#X obj 316 725 yelloscillator;
#X obj 409 725 yelloscillator;
#X obj 463 699 yelloscillator;
#X text 961 819 Pierre Massat \, Guitar Extended \, 2014;
#X text 268 120 Choose an instrument.;
#X obj 931 78 loadbang;
#X msg 934 112 2;
#X obj 37 38 cnv 15 100 60 empty empty empty 20 12 0 14 -233017 -66577
0;
#X text 109 142 Release;
#X text 110 181 Pitch;
#X text 107 125 Yellotron..........................;
#X msg 830 201 \; set-release 200 \; set-pitch 0.0625;
#X obj 306 780 outlet~;
#X obj 276 8 inlet;
#X obj 310 33 inlet;
#X connect 4 0 17 0;
#X connect 5 0 18 0;
#X connect 6 0 11 0;
#X connect 7 0 40 0;
#X connect 7 1 8 0;
#X connect 8 0 40 1;
#X connect 9 0 40 0;
#X connect 9 1 10 0;
#X connect 10 0 40 1;
#X connect 11 0 55 0;
#X connect 11 1 56 0;
#X connect 11 2 57 0;
#X connect 11 3 58 0;
#X connect 11 4 59 0;
#X connect 11 5 42 0;
#X connect 13 0 14 0;
#X connect 13 0 12 0;
#X connect 15 0 16 0;
#X connect 16 0 19 0;
#X connect 17 0 7 0;
#X connect 18 0 9 0;
#X connect 19 0 21 0;
#X connect 20 0 68 0;
#X connect 22 0 18 1;
#X connect 22 0 17 1;
#X connect 23 0 1 0;
#X connect 34 0 36 0;
#X connect 36 0 35 0;
#X connect 36 0 54 0;
#X connect 38 0 39 0;
#X connect 39 0 55 1;
#X connect 39 1 56 1;
#X connect 39 2 59 1;
#X connect 39 3 42 1;
#X connect 39 4 57 1;
#X connect 39 5 58 1;
#X connect 40 0 38 0;
#X connect 40 1 38 1;
#X connect 40 2 38 2;
#X connect 41 0 6 0;
#X connect 41 1 6 1;
#X connect 41 2 6 2;
#X connect 42 0 46 0;
#X connect 43 0 44 0;
#X connect 44 0 45 0;
#X connect 45 0 34 0;
#X connect 46 0 69 0;
#X connect 52 0 13 0;
#X connect 53 0 34 0;
#X connect 55 0 46 0;
#X connect 56 0 46 0;
#X connect 57 0 46 0;
#X connect 58 0 46 0;
#X connect 59 0 46 0;
#X connect 62 0 63 0;
#X connect 63 0 23 0;
#X connect 70 0 41 0;
#X connect 71 0 41 1;
#X coords 0 -1 1 1 300 200 1 100 100;
#X restore 725 239 pd yellotron;
#N canvas 598 163 450 300 chord 0;
#X obj 10 61 t b b b, f 8;
#X obj 10 39 bng 15 250 50 0 empty empty empty 17 7 0 10 -262144 -1
-1;
#X obj 9 13 inlet;
#X obj 11 210 outlet;
#X obj 54 210 outlet;
#X obj 115 13 inlet;
#X obj 10 158 makenote 127 500;
#X obj 112 157 makenote 127 500;
#X obj 216 156 makenote 127 500;
#X obj 10 126 int;
#X obj 110 119 int;
#X obj 216 117 int;
#X obj 177 49 random 30;
#X obj 241 50 random 30;
#X obj 113 49 random 30;
#X obj 113 72 + 60;
#X obj 177 72 + 60;
#X obj 241 73 + 60;
#X obj 97 210 outlet;
#X obj 96 189 pack 0 0 0;
#X obj 225 13 inlet;
#X obj 307 17 inlet;
#X obj 307 40 unpack 0 0 0;
#X obj 371 83 t b;
#X connect 0 0 9 0;
#X connect 0 1 10 0;
#X connect 0 2 11 0;
#X connect 1 0 0 0;
#X connect 2 0 1 0;
#X connect 5 0 12 0;
#X connect 5 0 13 0;
#X connect 5 0 14 0;
#X connect 6 0 3 0;
#X connect 6 1 4 0;
#X connect 7 0 3 0;
#X connect 7 1 4 0;
#X connect 8 0 3 0;
#X connect 8 1 4 0;
#X connect 9 0 6 0;
#X connect 9 0 19 0;
#X connect 10 0 7 0;
#X connect 10 0 19 1;
#X connect 11 0 8 0;
#X connect 11 0 19 2;
#X connect 12 0 16 0;
#X connect 13 0 17 0;
#X connect 14 0 15 0;
#X connect 15 0 9 1;
#X connect 16 0 10 1;
#X connect 17 0 11 1;
#X connect 19 0 18 0;
#X connect 20 0 14 1;
#X connect 20 0 12 1;
#X connect 20 0 13 1;
#X connect 21 0 22 0;
#X connect 22 0 9 1;
#X connect 22 0 23 0;
#X connect 22 1 10 1;
#X connect 22 2 11 1;
#X connect 23 0 1 0;
#X restore 336 500 pd chord;
#X obj 335 478 bng 15 250 50 0 empty empty empty 17 7 0 10 -262144
-1 -1;
#X obj 545 376 f 0;
#X floatatom 545 397 5 0 0 0 - - -;
#X obj 571 376 + 1;
#X obj 545 442 sel 1;
#X obj 545 461 bng 15 250 50 0 empty empty empty 17 7 0 10 -262144
-1 -1;
#X obj 357 480 bng 15 250 50 0 empty empty empty 17 7 0 10 -262144
-1 -1;
#X obj 398 497 print;
#X floatatom 378 476 5 0 0 0 - - -;
#N canvas 152 140 450 300 chord_bank 0;
#X msg 164 142 63 67 69;
#X msg 102 141 66 67 64;
#X obj 6 7 inlet;
#X obj 10 241 outlet;
#X obj 6 56 sel 0 1;
#X obj 6 33 random 3;
#X connect 0 0 3 0;
#X connect 1 0 3 0;
#X connect 2 0 5 0;
#X connect 4 0 1 0;
#X connect 4 1 0 0;
#X connect 5 0 4 0;
#X restore 441 500 pd chord_bank;
#X obj 442 478 bng 15 250 50 0 empty empty empty 17 7 0 10 -262144
-1 -1;
#X obj 545 419 mod 19;
#N canvas 281 187 630 372 spectrolog 0;
#N canvas 556 61 872 789 FFT_Analyse 0;
#X obj 101 102 inlet~;
#X obj 101 332 *~;
#X obj 132 331 *~;
#X obj 101 356 +~;
#X obj 102 377 powtodb~;
#N canvas 0 22 346 535 init_input_window 0;
#X obj 73 217 / 10;
#X obj 55 278 line 0 0.1;
#X msg 119 246 0;
#X obj 54 176 t f f b;
#X obj 54 239 pack;
#X obj 55 301 t f f;
#X obj 54 152 - 1;
#X obj 74 114 t f f;
#X obj 55 359 * 3.14159;
#X obj 55 381 sin;
#X msg 55 401 \$1 \$1;
#X obj 55 423 *;
#X text 119 334 0...0.99;
#X text 128 359 0...pi;
#X text 79 423 hanning;
#X msg 55 88 4096;
#X obj 100 88 f 4096;
#X obj 99 60 bng 15 250 50 0 empty empty empty 0 -6 0 8 -262144 -1
-1;
#X obj 99 39 loadbang;
#X obj 74 333 / 4096;
#X obj 55 448 tabwrite \$0-window;
#X text 86 381 half-sine;
#X connect 0 0 4 1;
#X connect 1 0 5 0;
#X connect 2 0 1 0;
#X connect 3 0 4 0;
#X connect 3 1 0 0;
#X connect 3 2 2 0;
#X connect 4 0 1 0;
#X connect 5 0 19 0;
#X connect 5 1 20 1;
#X connect 6 0 3 0;
#X connect 7 0 6 0;
#X connect 7 1 19 1;
#X connect 8 0 9 0;
#X connect 9 0 10 0;
#X connect 10 0 11 0;
#X connect 11 0 20 0;
#X connect 15 0 7 0;
#X connect 16 0 7 0;
#X connect 17 0 16 0;
#X connect 18 0 17 0;
#X connect 19 0 8 0;
#X restore 161 276 pd init_input_window;
#N canvas 0 22 450 300 (subpatch) 0;
#X array \$0-lin_scope 2048 float 0;
#X coords 0 100 2047 0 200 140 1;
#X restore 110 621 graph;
#N canvas 0 22 822 328 init_norm 0;
#X obj 43 230 outlet;
#X obj 43 187 - 100;
#X floatatom 43 208 9 0 0 0 - - -;
#X text 108 169 leistung - techn. dB;
#X msg 43 69 4096;
#X obj 80 68 f 4096;
#X obj 80 47 bng 15 250 50 0 empty empty empty 0 -6 0 8 -262144 -1
-1;
#X obj 80 26 loadbang;
#X obj 43 167 rmstodb;
#X obj 43 110 / 4;
#X text 74 103 faktor 2 wegen hanning;
#X text 74 114 weiterer faktor 2 \, weil wir nur die;
#X text 73 124 erste haelfte des konjungiert komplexen spektrum sehen
;
#X text 108 135 bzw. bearbeiten \, somit nur die haelfte der spektralen
energie;
#X connect 1 0 2 0;
#X connect 2 0 0 0;
#X connect 4 0 9 0;
#X connect 5 0 9 0;
#X connect 6 0 5 0;
#X connect 7 0 6 0;
#X connect 8 0 1 0;
#X connect 9 0 8 0;
#X restore 153 421 pd init_norm;
#X obj 100 231 *~;
#X obj 102 443 -~ 60.206;
#X obj 113 517 *~ 0.98;
#X obj 100 539 +~;
#X obj 101 471 *~ 0.02;
#X msg 314 481 1 \$1;
#X obj 314 502 -;
#X obj 314 458 clip 0 1;
#X obj 314 437 / 100;
#X floatatom 314 413 5 0.5 100 0 - - -;
#X obj 333 366 loadbang;
#X obj 100 277 fft~;
#X obj 463 557 line 0 0.1;
#X obj 463 602 / 2;
#X obj 463 622 mtof;
#X msg 463 536 6 \, 273 26.7;
#X obj 463 580 t f f;
#X obj 494 602 - 6;
#X obj 463 642 / 44100;
#X obj 463 663 * 4096;
#X msg 656 633 6;
#X obj 656 653 / 2;
#X obj 656 673 mtof;
#X floatatom 656 693 9 0 0 0 - - -;
#X text 723 694 Hz;
#X obj 754 654 / 2;
#X obj 754 673 mtof;
#X floatatom 754 693 9 0 0 0 - - -;
#X text 822 693 Hz;
#X msg 754 634 273;
#X obj 656 612 t b b;
#X obj 463 498 tgl 15 0 empty empty empty 0 -6 0 8 -262144 -1 -1 1
1;
#X obj 463 458 loadbang;
#X msg 463 478 1;
#X obj 656 592 loadbang;
#X obj 468 245 loadbang;
#X obj 703 102 inlet;
#X obj 130 253 table \$0-window 4096;
#X obj 137 214 tabreceive~ \$0-window;
#X text 353 403 temporal lowpass;
#X text 355 415 parameter between 0 .. 100 %;
#X text 23 23 spectrum~;
#X text 120 23 draws the power of a spectrum in a logarithmic scale
;
#X text 118 36 (by Thomas Musil);
#X obj 113 496 tabreceive~ \$0-lin_scope;
#X obj 100 564 tabsend~ \$0-lin_scope;
#X obj 463 685 tabread4 \$0-lin_scope;
#X obj 468 267 f \$0;
#X text 553 536 transformation to log scale;
#X msg 333 385 100;
#X obj 314 341 max 0.5;
#X obj 314 319 min 100;
#X obj 440 107 inlet;
#X text 96 81 audio sig;
#X text 700 81 ON/OFF;
#X text 427 86 (0 .. 100);
#X text 408 72 temporal lowpass;
#X obj 533 244 bng 15 250 50 0 empty empty empty 0 -6 0 8 -262144 -1
-1;
#X obj 463 735 tabwrite \$0-s;
#X msg 468 296 \; \$1-s xticks 0 12 2;
#X msg 491 330 \; \$1-s yticks 0 5 2;
#X obj 462 516 metro 100;
#X obj 704 166 switch~ 4096 2;
#X obj 463 711 clip 0 100;
#X obj 773 101 loadbang;
#X msg 773 123 1;
#X connect 0 0 8 0;
#X connect 1 0 3 0;
#X connect 2 0 3 1;
#X connect 3 0 4 0;
#X connect 4 0 9 0;
#X connect 7 0 9 1;
#X connect 8 0 19 0;
#X connect 9 0 12 0;
#X connect 10 0 11 1;
#X connect 11 0 53 0;
#X connect 12 0 11 0;
#X connect 13 0 14 0;
#X connect 14 0 10 1;
#X connect 15 0 13 0;
#X connect 15 0 12 1;
#X connect 16 0 15 0;
#X connect 17 0 16 0;
#X connect 18 0 57 0;
#X connect 19 0 1 0;
#X connect 19 0 1 1;
#X connect 19 1 2 0;
#X connect 19 1 2 1;
#X connect 20 0 24 0;
#X connect 21 0 22 0;
#X connect 22 0 26 0;
#X connect 23 0 20 0;
#X connect 24 0 21 0;
#X connect 24 1 25 0;
#X connect 25 0 66 1;
#X connect 26 0 27 0;
#X connect 27 0 54 0;
#X connect 28 0 29 0;
#X connect 29 0 30 0;
#X connect 30 0 31 0;
#X connect 33 0 34 0;
#X connect 34 0 35 0;
#X connect 37 0 33 0;
#X connect 38 0 28 0;
#X connect 38 1 37 0;
#X connect 39 0 69 0;
#X connect 40 0 41 0;
#X connect 41 0 39 0;
#X connect 42 0 38 0;
#X connect 43 0 55 0;
#X connect 44 0 70 0;
#X connect 46 0 8 1;
#X connect 52 0 10 0;
#X connect 54 0 71 0;
#X connect 55 0 67 0;
#X connect 55 0 68 0;
#X connect 57 0 17 0;
#X connect 58 0 17 0;
#X connect 59 0 58 0;
#X connect 60 0 59 0;
#X connect 65 0 55 0;
#X connect 69 0 23 0;
#X connect 71 0 66 0;
#X connect 72 0 73 0;
#X connect 73 0 70 0;
#X restore 17 320 pd FFT_Analyse;
#X obj 63 299 inlet;
#X obj 17 299 inlet~;
#X obj 110 299 inlet;
#N canvas 0 22 450 300 (subpatch) 0;
#X array \$0-s 268 float 0;
#X coords 0 100 267 0 267 140 1;
#X restore 23 27 graph;
#X obj 297 42 cnv 15 1 1 empty empty -10 0 0 0 10 -262144 -1 0;
#X obj 297 154 cnv 15 1 1 empty empty -90 0 0 0 10 -262144 -1 0;
#X obj 297 98 cnv 15 1 1 empty empty -50 0 0 0 10 -262144 -1 0;
#X obj 297 70 cnv 15 1 1 empty empty -30 0 0 0 10 -262144 -1 0;
#X obj 297 126 cnv 15 1 1 empty empty -70 0 0 0 10 -262144 -1 0;
#X obj 18 171 cnv 15 1 1 empty empty 10 0 5 0 10 -262144 -1 0;
#X obj 66 171 cnv 15 1 1 empty empty 40 0 5 0 10 -262144 -1 0;
#X obj 115 171 cnv 15 1 1 empty empty 160 0 5 0 10 -262144 -1 0;
#X obj 162 171 cnv 15 1 1 empty empty 640 0 5 0 10 -262144 -1 0;
#X obj 210 171 cnv 15 1 1 empty empty 2k56 0 5 0 10 -262144 -1 0;
#X obj 258 171 cnv 15 1 1 empty empty 10k2 0 5 0 10 -262144 -1 0;
#X obj 138 184 cnv 15 1 1 empty empty 320 0 5 0 10 -262144 -1 0;
#X obj 282 184 cnv 15 1 1 empty empty 20k5 0 5 0 10 -262144 -1 0;
#X obj 42 181 cnv 15 1 1 empty empty 20 0 9 0 10 -262144 -1 0;
#X obj 90 184 cnv 15 1 1 empty empty 80 0 5 0 10 -262144 -1 0;
#X obj 186 184 cnv 15 1 1 empty empty 1k28 0 5 0 10 -262144 -1 0;
#X obj 234 184 cnv 15 1 1 empty empty 5k12 0 5 0 10 -262144 -1 0;
#X obj 46 168 cnv 15 1 1 empty empty | 0 7 0 10 -262144 -1 0;
#X obj 94 168 cnv 15 1 1 empty empty | 0 7 0 10 -262144 -1 0;
#X obj 142 168 cnv 15 1 1 empty empty | 0 7 0 10 -262144 -1 0;
#X obj 190 168 cnv 15 1 1 empty empty | 0 7 0 10 -262144 -1 0;
#X obj 238 168 cnv 15 1 1 empty empty | 0 7 0 10 -262144 -1 0;
#X obj 286 168 cnv 15 1 1 empty empty | 0 7 0 10 -262144 -1 0;
#X connect 1 0 0 1;
#X connect 2 0 0 0;
#X connect 3 0 0 2;
#X coords 0 -1 1 1 330 210 1 0 0;
#X restore 5 505 pd spectrolog;
#X obj 558 142 fm, f 18;
#X floatatom 558 103 5 0 0 0 - - -;
#X floatatom 576 122 5 0 0 0 - - -;
#X floatatom 611 122 5 0 0 0 - - -;
#X floatatom 646 122 5 0 0 0 - - -;
#X floatatom 681 123 5 0 0 0 - - -;
#X obj 556 52 unpack 0 0 0 0;
#N canvas 1 67 450 300 notes 0;
#X msg 13 108 40;
#X msg 39 109 42;
#X msg 66 108 37;
#X msg 91 108 33;
#X obj 12 85 sel 1 2 3 4 5 6;
#X msg 118 108 30;
#X msg 143 107 31;
#X msg 168 108 28;
#X obj 11 12 inlet;
#X obj 13 264 outlet;
#X obj 11 60 random 3;
#X connect 0 0 9 0;
#X connect 1 0 9 0;
#X connect 2 0 9 0;
#X connect 3 0 9 0;
#X connect 4 0 0 0;
#X connect 4 1 1 0;
#X connect 4 2 2 0;
#X connect 4 3 3 0;
#X connect 4 4 5 0;
#X connect 4 5 6 0;
#X connect 4 6 7 0;
#X connect 5 0 9 0;
#X connect 6 0 9 0;
#X connect 7 0 9 0;
#X connect 8 0 10 0;
#X connect 10 0 4 0;
#X restore 557 79 pd notes;
#X obj 555 11 bng 15 250 50 0 empty empty empty 17 7 0 10 -262144 -1
-1;
#X floatatom 607 258 5 0 0 0 - - -;
#X obj 609 425 lop~ 80;
#X obj 608 449 lop~ 80;
#X obj 607 214 mtof;
#X obj 608 403 *~;
#X obj 622 380 line~;
#X msg 622 322 1 50;
#X msg 656 358 0 50;
#X obj 659 249 bng 15 250 50 0 empty empty empty 17 7 0 10 -262144
-1 -1;
#X obj 660 337 del 300;
#X obj 608 472 *~ 0.5;
#X obj 607 280 osc~;
#X obj 556 30 list 1.5 4 631 918;
#N canvas 308 206 534 367 reverb 0;
#X obj 31 20 cnv 15 100 60 empty empty empty 20 12 0 14 -233017 -66577
0;
#X obj 406 319 freeverb~;
#X msg 423 273 wet \$1;
#X msg 471 274 dry \$1;
#X obj 112 147 hsl 128 15 0 1 0 0 empty empty empty -2 -8 0 10 -262144
-1 -1 0 1;
#N canvas 1 80 450 300 inv 0;
#X obj 154 69 inlet;
#X obj 154 179 outlet;
#X msg 154 124 1;
#X obj 154 97 t b f;
#X obj 154 151 -;
#X connect 0 0 3 0;
#X connect 2 0 4 0;
#X connect 3 0 2 0;
#X connect 3 1 4 1;
#X connect 4 0 1 0;
#X restore 471 246 pd inv;
#X floatatom 529 271 5 0 0 0 - - -;
#X text 100 131 dry;
#X text 225 130 wet;
#X floatatom 430 247 5 0 0 0 - - -;
#X obj 406 37 inlet~;
#X obj 406 342 outlet~;
#X text 205 102 reverb;
#X connect 1 0 11 0;
#X connect 2 0 1 0;
#X connect 3 0 1 0;
#X connect 4 0 2 0;
#X connect 4 0 5 0;
#X connect 4 0 9 0;
#X connect 5 0 3 0;
#X connect 5 0 6 0;
#X connect 10 0 1 0;
#X coords 0 -1 1 1 150 70 1 100 100;
#X restore 724 521 pd reverb;
#N canvas 308 206 534 367 reverb 0;
#X obj 31 20 cnv 15 100 60 empty empty empty 20 12 0 14 -233017 -66577
0;
#X obj 406 319 freeverb~;
#X msg 423 273 wet \$1;
#X msg 471 274 dry \$1;
#X obj 112 147 hsl 128 15 0 1 0 0 empty empty empty -2 -8 0 10 -262144
-1 -1 0 1;
#N canvas 1 80 450 300 inv 0;
#X obj 154 69 inlet;
#X obj 154 179 outlet;
#X msg 154 124 1;
#X obj 154 97 t b f;
#X obj 154 151 -;
#X connect 0 0 3 0;
#X connect 2 0 4 0;
#X connect 3 0 2 0;
#X connect 3 1 4 1;
#X connect 4 0 1 0;
#X restore 471 246 pd inv;
#X floatatom 529 271 5 0 0 0 - - -;
#X text 100 131 dry;
#X text 225 130 wet;
#X floatatom 430 247 5 0 0 0 - - -;
#X obj 406 37 inlet~;
#X obj 406 342 outlet~;
#X text 205 102 reverb;
#X connect 1 0 11 0;
#X connect 2 0 1 0;
#X connect 3 0 1 0;
#X connect 4 0 2 0;
#X connect 4 0 5 0;
#X connect 4 0 9 0;
#X connect 5 0 3 0;
#X connect 5 0 6 0;
#X connect 10 0 1 0;
#X coords 0 -1 1 1 150 70 1 100 100;
#X restore 724 445 pd reverb;
#X obj 735 99 sample, f 10;
#X obj 735 81 bng 15 250 50 0 empty empty empty 17 7 0 10 -262144 -1
-1;
#X obj 763 81 bng 15 250 50 0 empty empty empty 17 7 0 10 -262144 -1
-1;
#X obj 813 102 sample, f 10;
#X obj 813 84 bng 15 250 50 0 empty empty empty 17 7 0 10 -262144 -1
-1;
#X obj 841 84 bng 15 250 50 0 empty empty empty 17 7 0 10 -262144 -1
-1;
#X obj 883 100 sample, f 10;
#X obj 883 82 bng 15 250 50 0 empty empty empty 17 7 0 10 -262144 -1
-1;
#X obj 911 82 bng 15 250 50 0 empty empty empty 17 7 0 10 -262144 -1
-1;
#N canvas 308 206 534 367 reverb 0;
#X obj 31 20 cnv 15 100 60 empty empty empty 20 12 0 14 -233017 -66577
0;
#X obj 406 319 freeverb~;
#X msg 423 273 wet \$1;
#X msg 471 274 dry \$1;
#X obj 112 147 hsl 128 15 0 1 0 0 empty empty empty -2 -8 0 10 -262144
-1 -1 0 1;
#N canvas 1 80 450 300 inv 0;
#X obj 154 69 inlet;
#X obj 154 179 outlet;
#X msg 154 124 1;
#X obj 154 97 t b f;
#X obj 154 151 -;
#X connect 0 0 3 0;
#X connect 2 0 4 0;
#X connect 3 0 2 0;
#X connect 3 1 4 1;
#X connect 4 0 1 0;
#X restore 471 246 pd inv;
#X floatatom 529 271 5 0 0 0 - - -;
#X text 100 131 dry;
#X text 225 130 wet;
#X floatatom 430 247 5 0 0 0 - - -;
#X obj 406 37 inlet~;
#X obj 406 342 outlet~;
#X text 205 102 reverb;
#X connect 1 0 11 0;
#X connect 2 0 1 0;
#X connect 3 0 1 0;
#X connect 4 0 2 0;
#X connect 4 0 5 0;
#X connect 4 0 9 0;
#X connect 5 0 3 0;
#X connect 5 0 6 0;
#X connect 10 0 1 0;
#X coords 0 -1 1 1 150 70 1 100 100;
#X restore 769 142 pd reverb;
#X obj 961 101 sample, f 10;
#X obj 961 83 bng 15 250 50 0 empty empty empty 17 7 0 10 -262144 -1
-1;
#X obj 989 83 bng 15 250 50 0 empty empty empty 17 7 0 10 -262144 -1
-1;
#X obj 545 481 del 500;
#X obj 545 516 del 1000;
#X obj 762 37 mod 32;
#X obj 762 60 sel 1;
#X msg 1084 221 print;
#X msg 1083 173 start;
#X msg 1085 199 stop;
#X text 1136 173 start streaming audio;
#X text 1131 199 stop streaming audio;
#X obj 1074 265 writesf~ 2;
#X msg 1074 89 open skeptismo.wav;
#X obj 933 153 sample, f 10;
#X obj 933 135 bng 15 250 50 0 empty empty empty 17 7 0 10 -262144
-1 -1;
#X obj 962 133 bng 15 250 50 0 empty empty empty 17 7 0 10 -262144
-1 -1;
#X obj 936 192 sample, f 10;
#X obj 936 174 bng 15 250 50 0 empty empty empty 17 7 0 10 -262144
-1 -1;
#X obj 964 174 bng 15 250 50 0 empty empty empty 17 7 0 10 -262144
-1 -1;
#X obj 407 544 *~ 1.5;
#X obj 537 550 mod 128;
#X obj 537 573 sel 1;
#X obj 551 624 sel 1;
#X obj 551 601 mod 190;
#X obj 626 615 sel 1;
#X obj 626 592 mod 111;
#X obj 663 638 sel 1;
#X obj 663 615 mod 77;
#X obj 559 165 *~ 0.4;
#X obj 1017 33 declare -path ./Yellotron;
#X connect 0 0 1 0;
#X connect 0 2 3 0;
#X connect 0 2 26 0;
#X connect 1 0 18 0;
#X connect 1 0 41 0;
#X connect 3 0 7 0;
#X connect 4 0 42 0;
#X connect 5 0 4 0;
#X connect 5 1 4 1;
#X connect 5 2 13 0;
#X connect 6 0 5 0;
#X connect 6 0 12 0;
#X connect 7 0 8 0;
#X connect 7 0 9 0;
#X connect 8 0 17 0;
#X connect 8 0 58 0;
#X connect 8 0 74 0;
#X connect 8 0 77 0;
#X connect 8 0 79 0;
#X connect 8 0 81 0;
#X connect 9 0 7 1;
#X connect 10 0 11 0;
#X connect 10 0 16 0;
#X connect 11 0 56 0;
#X connect 12 0 5 1;
#X connect 14 0 5 2;
#X connect 15 0 5 3;
#X connect 16 0 15 0;
#X connect 17 0 10 0;
#X connect 19 0 82 0;
#X connect 20 0 19 0;
#X connect 20 0 31 0;
#X connect 21 0 19 1;
#X connect 22 0 19 2;
#X connect 23 0 19 3;
#X connect 24 0 19 4;
#X connect 25 0 21 0;
#X connect 25 1 22 0;
#X connect 25 2 23 0;
#X connect 25 3 24 0;
#X connect 26 0 20 0;
#X connect 27 0 40 0;
#X connect 28 0 39 0;
#X connect 29 0 30 0;
#X connect 30 0 38 0;
#X connect 31 0 28 0;
#X connect 31 0 36 0;
#X connect 32 0 29 0;
#X connect 33 0 32 1;
#X connect 34 0 33 0;
#X connect 35 0 33 0;
#X connect 36 0 34 0;
#X connect 36 0 37 0;
#X connect 37 0 35 0;
#X connect 38 0 1 0;
#X connect 39 0 32 0;
#X connect 40 0 25 0;
#X connect 41 0 2 0;
#X connect 41 0 2 1;
#X connect 41 0 65 0;
#X connect 41 0 65 1;
#X connect 42 0 1 0;
#X connect 43 0 52 0;
#X connect 44 0 43 0;
#X connect 45 0 43 1;
#X connect 46 0 52 0;
#X connect 47 0 46 0;
#X connect 48 0 46 1;
#X connect 49 0 52 0;
#X connect 50 0 49 0;
#X connect 51 0 49 1;
#X connect 52 0 1 0;
#X connect 53 0 52 0;
#X connect 54 0 53 0;
#X connect 55 0 53 1;
#X connect 56 0 48 0;
#X connect 56 0 57 0;
#X connect 58 0 59 0;
#X connect 59 0 45 0;
#X connect 60 0 65 0;
#X connect 61 0 65 0;
#X connect 62 0 65 0;
#X connect 66 0 65 0;
#X connect 67 0 52 0;
#X connect 68 0 67 0;
#X connect 69 0 67 1;
#X connect 70 0 52 0;
#X connect 71 0 70 0;
#X connect 72 0 70 1;
#X connect 73 0 1 0;
#X connect 74 0 75 0;
#X connect 75 0 55 0;
#X connect 76 0 69 0;
#X connect 77 0 76 0;
#X connect 78 0 72 0;
#X connect 79 0 78 0;
#X connect 80 0 51 0;
#X connect 81 0 80 0;
#X connect 82 0 1 0;
