#N canvas 600 221 450 300 10;
#X obj 10 33 bng 15 250 50 0 empty empty empty 17 7 0 10 -262144 -1
-1;
#X floatatom 10 76 5 0 0 0 - - -;
#X obj 10 53 f 0;
#X obj 40 54 + 1;
#X obj 10 121 sel 1;
#X obj 10 142 bng 15 250 50 0 empty empty empty 17 7 0 10 -262144 -1
-1;
#X obj 10 98 mod 32;
#X obj 9 10 inlet;
#X obj 10 163 outlet;
#X obj 47 10 inlet;
#X connect 0 0 2 0;
#X connect 1 0 6 0;
#X connect 2 0 3 0;
#X connect 2 0 1 0;
#X connect 3 0 2 1;
#X connect 4 0 5 0;
#X connect 5 0 8 0;
#X connect 6 0 4 0;
#X connect 7 0 0 0;
#X connect 9 0 6 1;
