#N canvas 34 87 450 300 10;
#N canvas 0 50 450 250 (subpatch) 0;
#X array \$0-array 62817 float 2;
#X coords 0 1 62817 -1 200 140 1;
#X restore 11 22 graph;
#X obj 222 65 openpanel;
#X msg 222 109 read -resize \$1 \$2-array;
#X obj 222 131 soundfiler;
#X obj 222 45 bng 15 250 50 0 empty empty empty 17 7 0 10 -262144 -1
-1;
#X obj 222 87 pack s \$0;
#X obj 257 153 bng 15 250 50 0 empty empty empty 17 7 0 10 -262144
-1 -1;
#X msg 256 171 bang;
#X obj 256 192 tabplay~ \$0-array;
#X obj 222 22 inlet;
#X obj 257 215 outlet~;
#X obj 258 22 inlet;
#X obj 294 22 inlet;
#X obj 307 215 outlet;
#X text 12 247 reference: https://forum.pdpatchrepo.info/topic/11128/resizing-arrays-and-variable-name/4
;
#X connect 1 0 5 0;
#X connect 2 0 3 0;
#X connect 4 0 1 0;
#X connect 5 0 2 0;
#X connect 5 0 13 0;
#X connect 6 0 7 0;
#X connect 7 0 8 0;
#X connect 8 0 10 0;
#X connect 9 0 4 0;
#X connect 11 0 6 0;
#X connect 12 0 5 0;
