#N canvas 156 131 450 425 10;
#X obj 13 105 metro 89;
#X obj 13 70 tgl 15 0 empty empty empty 17 7 0 10 -262144 -1 -1 0 1
;
#X obj 13 128 bng 15 250 50 0 empty empty empty 17 7 0 10 -262144 -1
-1;
#X floatatom 13 181 5 0 0 0 - - -;
#X obj 13 157 f 0;
#X obj 43 158 + 1;
#X obj 75 222 mod 4;
#X obj 75 245 sel 0;
#X obj 115 244 sel 0;
#X obj 115 221 mod 8;
#X obj 39 245 sel 0;
#X obj 39 222 mod 2;
#X obj 149 243 sel 0;
#X obj 149 220 mod 16;
#X obj 193 243 sel 0;
#X obj 193 220 mod 32;
#X obj 238 242 sel 0;
#X obj 238 219 mod 64;
#X floatatom 56 83 5 0 0 0 - - -;
#X obj 39 267 bng 15 250 50 0 empty empty empty 17 7 0 10 -262144 -1
-1;
#X obj 75 267 bng 15 250 50 0 empty empty empty 17 7 0 10 -262144 -1
-1;
#X obj 115 267 bng 15 250 50 0 empty empty empty 17 7 0 10 -262144
-1 -1;
#X obj 149 265 bng 15 250 50 0 empty empty empty 17 7 0 10 -262144
-1 -1;
#X obj 193 265 bng 15 250 50 0 empty empty empty 17 7 0 10 -262144
-1 -1;
#X obj 238 265 bng 15 250 50 0 empty empty empty 17 7 0 10 -262144
-1 -1;
#X obj 39 334 outlet;
#X obj 75 303 outlet;
#X obj 115 327 outlet;
#X obj 149 284 outlet;
#X obj 193 284 outlet;
#X obj 238 284 outlet;
#X obj 32 62 inlet;
#X obj 71 61 inlet;
#X obj 13 302 outlet;
#X obj 285 243 sel 0;
#X obj 285 266 bng 15 250 50 0 empty empty empty 17 7 0 10 -262144
-1 -1;
#X obj 286 285 outlet;
#X obj 285 220 mod 128;
#X obj 333 243 sel 0;
#X obj 333 266 bng 15 250 50 0 empty empty empty 17 7 0 10 -262144
-1 -1;
#X obj 333 285 outlet;
#X obj 333 220 mod 256;
#X text 115 57 mod_transport Simple transport that uses a counter and
modulus to divide time into increasingly larger intervals;
#X connect 0 0 2 0;
#X connect 1 0 0 0;
#X connect 2 0 4 0;
#X connect 2 0 33 0;
#X connect 3 0 6 0;
#X connect 3 0 9 0;
#X connect 3 0 11 0;
#X connect 3 0 13 0;
#X connect 3 0 15 0;
#X connect 3 0 17 0;
#X connect 3 0 37 0;
#X connect 3 0 41 0;
#X connect 4 0 5 0;
#X connect 4 0 3 0;
#X connect 5 0 4 1;
#X connect 6 0 7 0;
#X connect 7 0 20 0;
#X connect 8 0 21 0;
#X connect 9 0 8 0;
#X connect 10 0 19 0;
#X connect 11 0 10 0;
#X connect 12 0 22 0;
#X connect 13 0 12 0;
#X connect 14 0 23 0;
#X connect 15 0 14 0;
#X connect 16 0 24 0;
#X connect 17 0 16 0;
#X connect 18 0 0 1;
#X connect 19 0 25 0;
#X connect 20 0 26 0;
#X connect 21 0 27 0;
#X connect 22 0 28 0;
#X connect 23 0 29 0;
#X connect 24 0 30 0;
#X connect 31 0 0 0;
#X connect 32 0 18 0;
#X connect 34 0 35 0;
#X connect 35 0 36 0;
#X connect 37 0 34 0;
#X connect 38 0 39 0;
#X connect 39 0 40 0;
#X connect 41 0 38 0;
