#N canvas 1 67 560 469 10;
#X floatatom 43 113 5 0 0 0 - - -;
#X obj 45 280 lop~ 80;
#X obj 44 304 lop~ 80;
#X obj 43 69 mtof;
#X floatatom 42 49 5 0 0 0 - - -;
#X obj 44 258 *~;
#X obj 58 235 line~;
#X msg 58 177 1 50;
#X obj 95 104 bng 15 250 50 0 empty empty empty 17 7 0 10 -262144 -1
-1;
#X obj 97 186 del 300;
#X obj 43 135 osc~;
#X msg 91 209 0 500;
#X obj 48 23 inlet;
#X obj 44 327 outlet~;
#X connect 0 0 10 0;
#X connect 1 0 2 0;
#X connect 2 0 13 0;
#X connect 3 0 0 0;
#X connect 3 0 8 0;
#X connect 4 0 3 0;
#X connect 4 0 0 0;
#X connect 5 0 1 0;
#X connect 6 0 5 1;
#X connect 7 0 6 0;
#X connect 8 0 7 0;
#X connect 8 0 9 0;
#X connect 9 0 11 0;
#X connect 10 0 5 0;
#X connect 11 0 6 0;
#X connect 12 0 4 0;
